<?xml version="1.0" encoding="UTF-8" standalone="no"?>
<!DOCTYPE svg PUBLIC "-//W3C//DTD SVG 1.1//EN"
 "http://www.w3.org/Graphics/SVG/1.1/DTD/svg11.dtd">
<!-- Generated by graphviz version 2.43.0 (0)
 -->
<!-- Title: %3 Pages: 1 -->
<svg width="333pt" height="332pt"
 viewBox="0.00 0.00 333.00 332.00" xmlns="http://www.w3.org/2000/svg" xmlns:xlink="http://www.w3.org/1999/xlink">
<g id="graph0" class="graph" transform="scale(1 1) rotate(0) translate(4 328)">
<title>%3</title>
<polygon fill="white" stroke="transparent" points="-4,4 -4,-328 329,-328 329,4 -4,4"/>
<!-- 0 -->
<g id="node1" class="node">
<title>0</title>
<ellipse fill="none" stroke="black" cx="82" cy="-306" rx="27" ry="18"/>
<text text-anchor="middle" x="82" y="-302.3" font-family="Times,serif" font-size="14.00">0</text>
</g>
<!-- 1 -->
<g id="node2" class="node">
<title>1</title>
<ellipse fill="none" stroke="black" cx="82" cy="-234" rx="27" ry="18"/>
<text text-anchor="middle" x="82" y="-230.3" font-family="Times,serif" font-size="14.00">1</text>
</g>
<!-- 0&#45;&#45;1 -->
<g id="edge1" class="edge">
<title>0&#45;&#45;1</title>
<path fill="none" stroke="black" d="M82,-287.7C82,-276.85 82,-262.92 82,-252.1"/>
</g>
<!-- 2 -->
<g id="node3" class="node">
<title>2</title>
<ellipse fill="none" stroke="black" cx="27" cy="-162" rx="27" ry="18"/>
<text text-anchor="middle" x="27" y="-158.3" font-family="Times,serif" font-size="14.00">2</text>
</g>
<!-- 0&#45;&#45;2 -->
<g id="edge2" class="edge">
<title>0&#45;&#45;2</title>
<path fill="none" stroke="black" d="M69.25,-289.7C61.44,-279.59 51.85,-265.71 46,-252 35.83,-228.17 30.89,-198.35 28.66,-179.99"/>
</g>
<!-- 1&#45;&#45;2 -->
<g id="edge3" class="edge">
<title>1&#45;&#45;2</title>
<path fill="none" stroke="black" d="M70.07,-217.81C60.84,-206.07 48.13,-189.89 38.91,-178.16"/>
</g>
<!-- 3 -->
<g id="node4" class="node">
<title>3</title>
<ellipse fill="none" stroke="black" cx="137" cy="-162" rx="27" ry="18"/>
<text text-anchor="middle" x="137" y="-158.3" font-family="Times,serif" font-size="14.00">3</text>
</g>
<!-- 1&#45;&#45;3 -->
<g id="edge4" class="edge">
<title>1&#45;&#45;3</title>
<path fill="none" stroke="black" d="M93.93,-217.81C103.16,-206.07 115.87,-189.89 125.09,-178.16"/>
</g>
<!-- 4 -->
<g id="node5" class="node">
<title>4</title>
<ellipse fill="none" stroke="black" cx="82" cy="-90" rx="27" ry="18"/>
<text text-anchor="middle" x="82" y="-86.3" font-family="Times,serif" font-size="14.00">4</text>
</g>
<!-- 1&#45;&#45;4 -->
<g id="edge5" class="edge">
<title>1&#45;&#45;4</title>
<path fill="none" stroke="black" d="M82,-215.87C82,-188.58 82,-135.52 82,-108.19"/>
</g>
<!-- 2&#45;&#45;4 -->
<g id="edge6" class="edge">
<title>2&#45;&#45;4</title>
<path fill="none" stroke="black" d="M38.93,-145.81C48.16,-134.07 60.87,-117.89 70.09,-106.16"/>
</g>
<!-- 7 -->
<g id="node6" class="node">
<title>7</title>
<ellipse fill="none" stroke="black" cx="226" cy="-90" rx="27" ry="18"/>
<text text-anchor="middle" x="226" y="-86.3" font-family="Times,serif" font-size="14.00">7</text>
</g>
<!-- 3&#45;&#45;7 -->
<g id="edge7" class="edge">
<title>3&#45;&#45;7</title>
<path fill="none" stroke="black" d="M153.74,-147.83C169.55,-135.4 193.15,-116.84 209.03,-104.35"/>
</g>
<!-- 8 -->
<g id="node8" class="node">
<title>8</title>
<ellipse fill="none" stroke="black" cx="154" cy="-18" rx="27" ry="18"/>
<text text-anchor="middle" x="154" y="-14.3" font-family="Times,serif" font-size="14.00">8</text>
</g>
<!-- 7&#45;&#45;8 -->
<g id="edge10" class="edge">
<title>7&#45;&#45;8</title>
<path fill="none" stroke="black" d="M211.43,-74.83C199.02,-62.77 181.27,-45.51 168.8,-33.38"/>
</g>
<!-- 9 -->
<g id="node10" class="node">
<title>9</title>
<ellipse fill="none" stroke="black" cx="226" cy="-18" rx="27" ry="18"/>
<text text-anchor="middle" x="226" y="-14.3" font-family="Times,serif" font-size="14.00">9</text>
</g>
<!-- 7&#45;&#45;9 -->
<g id="edge11" class="edge">
<title>7&#45;&#45;9</title>
<path fill="none" stroke="black" d="M226,-71.7C226,-60.85 226,-46.92 226,-36.1"/>
</g>
<!-- 5 -->
<g id="node7" class="node">
<title>5</title>
<ellipse fill="none" stroke="black" cx="154" cy="-90" rx="27" ry="18"/>
<text text-anchor="middle" x="154" y="-86.3" font-family="Times,serif" font-size="14.00">5</text>
</g>
<!-- 5&#45;&#45;8 -->
<g id="edge8" class="edge">
<title>5&#45;&#45;8</title>
<path fill="none" stroke="black" d="M154,-71.7C154,-60.85 154,-46.92 154,-36.1"/>
</g>
<!-- 6 -->
<g id="node9" class="node">
<title>6</title>
<ellipse fill="none" stroke="black" cx="298" cy="-90" rx="27" ry="18"/>
<text text-anchor="middle" x="298" y="-86.3" font-family="Times,serif" font-size="14.00">6</text>
</g>
<!-- 6&#45;&#45;9 -->
<g id="edge9" class="edge">
<title>6&#45;&#45;9</title>
<path fill="none" stroke="black" d="M283.43,-74.83C271.02,-62.77 253.27,-45.51 240.8,-33.38"/>
</g>
</g>
</svg>
