<?xml version="1.0" encoding="UTF-8" standalone="no"?>
<!DOCTYPE svg PUBLIC "-//W3C//DTD SVG 1.1//EN"
 "http://www.w3.org/Graphics/SVG/1.1/DTD/svg11.dtd">
<!-- Generated by graphviz version 2.43.0 (0)
 -->
<!-- Title: %3 Pages: 1 -->
<svg width="333pt" height="332pt"
 viewBox="0.00 0.00 333.00 332.00" xmlns="http://www.w3.org/2000/svg" xmlns:xlink="http://www.w3.org/1999/xlink">
<g id="graph0" class="graph" transform="scale(1 1) rotate(0) translate(4 328)">
<title>%3</title>
<polygon fill="white" stroke="transparent" points="-4,4 -4,-328 329,-328 329,4 -4,4"/>
<!-- 0 -->
<g id="node1" class="node">
<title>0</title>
<ellipse fill="none" stroke="black" cx="82" cy="-306" rx="27" ry="18"/>
<text text-anchor="middle" x="82" y="-302.3" font-family="Times,serif" font-size="14.00">0</text>
</g>
<!-- 1 -->
<g id="node2" class="node">
<title>1</title>
<ellipse fill="none" stroke="black" cx="82" cy="-234" rx="27" ry="18"/>
<text text-anchor="middle" x="82" y="-230.3" font-family="Times,serif" font-size="14.00">1</text>
</g>
<!-- 0&#45;&gt;1 -->
<g id="edge1" class="edge">
<title>0&#45;&gt;1</title>
<path fill="none" stroke="black" d="M82,-287.7C82,-279.98 82,-270.71 82,-262.11"/>
<polygon fill="black" stroke="black" points="85.5,-262.1 82,-252.1 78.5,-262.1 85.5,-262.1"/>
</g>
<!-- 2 -->
<g id="node3" class="node">
<title>2</title>
<ellipse fill="none" stroke="black" cx="27" cy="-162" rx="27" ry="18"/>
<text text-anchor="middle" x="27" y="-158.3" font-family="Times,serif" font-size="14.00">2</text>
</g>
<!-- 0&#45;&gt;2 -->
<g id="edge2" class="edge">
<title>0&#45;&gt;2</title>
<path fill="none" stroke="black" d="M69.25,-289.7C61.44,-279.59 51.85,-265.71 46,-252 37.54,-232.17 32.7,-208.2 30.02,-190.13"/>
<polygon fill="black" stroke="black" points="33.46,-189.43 28.66,-179.99 26.52,-190.37 33.46,-189.43"/>
</g>
<!-- 1&#45;&gt;2 -->
<g id="edge3" class="edge">
<title>1&#45;&gt;2</title>
<path fill="none" stroke="black" d="M70.07,-217.81C62.79,-208.55 53.34,-196.52 45.15,-186.09"/>
<polygon fill="black" stroke="black" points="47.84,-183.86 38.91,-178.16 42.34,-188.18 47.84,-183.86"/>
</g>
<!-- 3 -->
<g id="node4" class="node">
<title>3</title>
<ellipse fill="none" stroke="black" cx="181" cy="-162" rx="27" ry="18"/>
<text text-anchor="middle" x="181" y="-158.3" font-family="Times,serif" font-size="14.00">3</text>
</g>
<!-- 1&#45;&gt;3 -->
<g id="edge4" class="edge">
<title>1&#45;&gt;3</title>
<path fill="none" stroke="black" d="M100.16,-220.16C115.37,-209.41 137.29,-193.91 154.47,-181.76"/>
<polygon fill="black" stroke="black" points="156.81,-184.39 162.96,-175.76 152.77,-178.67 156.81,-184.39"/>
</g>
<!-- 4 -->
<g id="node5" class="node">
<title>4</title>
<ellipse fill="none" stroke="black" cx="82" cy="-90" rx="27" ry="18"/>
<text text-anchor="middle" x="82" y="-86.3" font-family="Times,serif" font-size="14.00">4</text>
</g>
<!-- 1&#45;&gt;4 -->
<g id="edge5" class="edge">
<title>1&#45;&gt;4</title>
<path fill="none" stroke="black" d="M82,-215.87C82,-191.67 82,-147.21 82,-118.39"/>
<polygon fill="black" stroke="black" points="85.5,-118.19 82,-108.19 78.5,-118.19 85.5,-118.19"/>
</g>
<!-- 2&#45;&gt;4 -->
<g id="edge6" class="edge">
<title>2&#45;&gt;4</title>
<path fill="none" stroke="black" d="M38.93,-145.81C46.21,-136.55 55.66,-124.52 63.85,-114.09"/>
<polygon fill="black" stroke="black" points="66.66,-116.18 70.09,-106.16 61.16,-111.86 66.66,-116.18"/>
</g>
<!-- 7 -->
<g id="node6" class="node">
<title>7</title>
<ellipse fill="none" stroke="black" cx="226" cy="-90" rx="27" ry="18"/>
<text text-anchor="middle" x="226" y="-86.3" font-family="Times,serif" font-size="14.00">7</text>
</g>
<!-- 3&#45;&gt;7 -->
<g id="edge7" class="edge">
<title>3&#45;&gt;7</title>
<path fill="none" stroke="black" d="M191.21,-145.12C196.85,-136.34 203.97,-125.26 210.3,-115.42"/>
<polygon fill="black" stroke="black" points="213.37,-117.13 215.83,-106.82 207.48,-113.34 213.37,-117.13"/>
</g>
<!-- 8 -->
<g id="node8" class="node">
<title>8</title>
<ellipse fill="none" stroke="black" cx="154" cy="-18" rx="27" ry="18"/>
<text text-anchor="middle" x="154" y="-14.3" font-family="Times,serif" font-size="14.00">8</text>
</g>
<!-- 7&#45;&gt;8 -->
<g id="edge10" class="edge">
<title>7&#45;&gt;8</title>
<path fill="none" stroke="black" d="M211.43,-74.83C201.25,-64.94 187.48,-51.55 175.97,-40.36"/>
<polygon fill="black" stroke="black" points="178.41,-37.85 168.8,-33.38 173.53,-42.87 178.41,-37.85"/>
</g>
<!-- 9 -->
<g id="node10" class="node">
<title>9</title>
<ellipse fill="none" stroke="black" cx="226" cy="-18" rx="27" ry="18"/>
<text text-anchor="middle" x="226" y="-14.3" font-family="Times,serif" font-size="14.00">9</text>
</g>
<!-- 7&#45;&gt;9 -->
<g id="edge11" class="edge">
<title>7&#45;&gt;9</title>
<path fill="none" stroke="black" d="M226,-71.7C226,-63.98 226,-54.71 226,-46.11"/>
<polygon fill="black" stroke="black" points="229.5,-46.1 226,-36.1 222.5,-46.1 229.5,-46.1"/>
</g>
<!-- 5 -->
<g id="node7" class="node">
<title>5</title>
<ellipse fill="none" stroke="black" cx="154" cy="-90" rx="27" ry="18"/>
<text text-anchor="middle" x="154" y="-86.3" font-family="Times,serif" font-size="14.00">5</text>
</g>
<!-- 5&#45;&gt;8 -->
<g id="edge8" class="edge">
<title>5&#45;&gt;8</title>
<path fill="none" stroke="black" d="M154,-71.7C154,-63.98 154,-54.71 154,-46.11"/>
<polygon fill="black" stroke="black" points="157.5,-46.1 154,-36.1 150.5,-46.1 157.5,-46.1"/>
</g>
<!-- 6 -->
<g id="node9" class="node">
<title>6</title>
<ellipse fill="none" stroke="black" cx="298" cy="-90" rx="27" ry="18"/>
<text text-anchor="middle" x="298" y="-86.3" font-family="Times,serif" font-size="14.00">6</text>
</g>
<!-- 6&#45;&gt;9 -->
<g id="edge9" class="edge">
<title>6&#45;&gt;9</title>
<path fill="none" stroke="black" d="M283.43,-74.83C273.25,-64.94 259.48,-51.55 247.97,-40.36"/>
<polygon fill="black" stroke="black" points="250.41,-37.85 240.8,-33.38 245.53,-42.87 250.41,-37.85"/>
</g>
</g>
</svg>
