<?xml version="1.0" encoding="UTF-8" standalone="no"?>
<!DOCTYPE svg PUBLIC "-//W3C//DTD SVG 1.1//EN"
 "http://www.w3.org/Graphics/SVG/1.1/DTD/svg11.dtd">
<!-- Generated by graphviz version 2.43.0 (0)
 -->
<!-- Title: %3 Pages: 1 -->
<svg width="172pt" height="476pt"
 viewBox="0.00 0.00 172.00 476.00" xmlns="http://www.w3.org/2000/svg" xmlns:xlink="http://www.w3.org/1999/xlink">
<g id="graph0" class="graph" transform="scale(1 1) rotate(0) translate(4 472)">
<title>%3</title>
<polygon fill="white" stroke="transparent" points="-4,4 -4,-472 168,-472 168,4 -4,4"/>
<!-- 0 -->
<g id="node1" class="node">
<title>0</title>
<ellipse fill="none" stroke="black" cx="27" cy="-450" rx="27" ry="18"/>
<text text-anchor="middle" x="27" y="-446.3" font-family="Times,serif" font-size="14.00">0</text>
</g>
<!-- 1 -->
<g id="node2" class="node">
<title>1</title>
<ellipse fill="none" stroke="black" cx="74" cy="-378" rx="27" ry="18"/>
<text text-anchor="middle" x="74" y="-374.3" font-family="Times,serif" font-size="14.00">1</text>
</g>
<!-- 0&#45;&#45;1 -->
<g id="edge1" class="edge">
<title>0&#45;&#45;1</title>
<path fill="none" stroke="black" d="M37.67,-433.12C45.36,-421.66 55.7,-406.26 63.38,-394.82"/>
</g>
<!-- 3 -->
<g id="node3" class="node">
<title>3</title>
<ellipse fill="none" stroke="black" cx="38" cy="-234" rx="27" ry="18"/>
<text text-anchor="middle" x="38" y="-230.3" font-family="Times,serif" font-size="14.00">3</text>
</g>
<!-- 0&#45;&#45;3 -->
<g id="edge2" class="edge">
<title>0&#45;&#45;3</title>
<path fill="none" stroke="black" d="M27.88,-431.85C29.94,-391.78 35.05,-292.38 37.11,-252.23"/>
</g>
<!-- 1&#45;&#45;3 -->
<g id="edge4" class="edge">
<title>1&#45;&#45;3</title>
<path fill="none" stroke="black" d="M68.21,-360.42C64.7,-350.03 60.28,-336.33 57,-324 50.41,-299.27 44.55,-270.2 41.14,-252.18"/>
</g>
<!-- 2 -->
<g id="node4" class="node">
<title>2</title>
<ellipse fill="none" stroke="black" cx="93" cy="-306" rx="27" ry="18"/>
<text text-anchor="middle" x="93" y="-302.3" font-family="Times,serif" font-size="14.00">2</text>
</g>
<!-- 1&#45;&#45;2 -->
<g id="edge3" class="edge">
<title>1&#45;&#45;2</title>
<path fill="none" stroke="black" d="M78.6,-360.05C81.59,-349.05 85.46,-334.76 88.44,-323.79"/>
</g>
<!-- 4 -->
<g id="node5" class="node">
<title>4</title>
<ellipse fill="none" stroke="black" cx="102" cy="-162" rx="27" ry="18"/>
<text text-anchor="middle" x="102" y="-158.3" font-family="Times,serif" font-size="14.00">4</text>
</g>
<!-- 1&#45;&#45;4 -->
<g id="edge5" class="edge">
<title>1&#45;&#45;4</title>
<path fill="none" stroke="black" d="M92.9,-364.94C105.74,-355.54 121.69,-341.21 129,-324 150.18,-274.18 124.72,-209.08 110.43,-179.23"/>
</g>
<!-- 3&#45;&#45;4 -->
<g id="edge8" class="edge">
<title>3&#45;&#45;4</title>
<path fill="none" stroke="black" d="M51.57,-218.15C62.43,-206.28 77.59,-189.7 88.45,-177.82"/>
</g>
<!-- 7 -->
<g id="node6" class="node">
<title>7</title>
<ellipse fill="none" stroke="black" cx="38" cy="-90" rx="27" ry="18"/>
<text text-anchor="middle" x="38" y="-86.3" font-family="Times,serif" font-size="14.00">7</text>
</g>
<!-- 3&#45;&#45;7 -->
<g id="edge9" class="edge">
<title>3&#45;&#45;7</title>
<path fill="none" stroke="black" d="M38,-215.87C38,-188.58 38,-135.52 38,-108.19"/>
</g>
<!-- 2&#45;&#45;3 -->
<g id="edge6" class="edge">
<title>2&#45;&#45;3</title>
<path fill="none" stroke="black" d="M81.07,-289.81C71.84,-278.07 59.13,-261.89 49.91,-250.16"/>
</g>
<!-- 2&#45;&#45;4 -->
<g id="edge7" class="edge">
<title>2&#45;&#45;4</title>
<path fill="none" stroke="black" d="M94.09,-287.87C95.82,-260.58 99.18,-207.52 100.91,-180.19"/>
</g>
<!-- 4&#45;&#45;7 -->
<g id="edge12" class="edge">
<title>4&#45;&#45;7</title>
<path fill="none" stroke="black" d="M88.43,-146.15C77.57,-134.28 62.41,-117.7 51.55,-105.82"/>
</g>
<!-- 5 -->
<g id="node7" class="node">
<title>5</title>
<ellipse fill="none" stroke="black" cx="110" cy="-90" rx="27" ry="18"/>
<text text-anchor="middle" x="110" y="-86.3" font-family="Times,serif" font-size="14.00">5</text>
</g>
<!-- 4&#45;&#45;5 -->
<g id="edge10" class="edge">
<title>4&#45;&#45;5</title>
<path fill="none" stroke="black" d="M103.98,-143.7C105.22,-132.85 106.81,-118.92 108.05,-108.1"/>
</g>
<!-- 6 -->
<g id="node8" class="node">
<title>6</title>
<ellipse fill="none" stroke="black" cx="137" cy="-18" rx="27" ry="18"/>
<text text-anchor="middle" x="137" y="-14.3" font-family="Times,serif" font-size="14.00">6</text>
</g>
<!-- 4&#45;&#45;6 -->
<g id="edge11" class="edge">
<title>4&#45;&#45;6</title>
<path fill="none" stroke="black" d="M118.3,-147.07C128.4,-137.3 140.48,-123.3 146,-108 154.7,-83.9 148.45,-53.89 142.9,-35.61"/>
</g>
<!-- 5&#45;&#45;6 -->
<g id="edge13" class="edge">
<title>5&#45;&#45;6</title>
<path fill="none" stroke="black" d="M116.4,-72.41C120.64,-61.41 126.19,-47.03 130.46,-35.96"/>
</g>
</g>
</svg>
