<?xml version="1.0" encoding="UTF-8" standalone="no"?>
<!DOCTYPE svg PUBLIC "-//W3C//DTD SVG 1.1//EN"
 "http://www.w3.org/Graphics/SVG/1.1/DTD/svg11.dtd">
<!-- Generated by graphviz version 2.43.0 (0)
 -->
<!-- Title: %3 Pages: 1 -->
<svg width="255pt" height="404pt"
 viewBox="0.00 0.00 255.05 404.00" xmlns="http://www.w3.org/2000/svg" xmlns:xlink="http://www.w3.org/1999/xlink">
<g id="graph0" class="graph" transform="scale(1 1) rotate(0) translate(4 400)">
<title>%3</title>
<polygon fill="white" stroke="transparent" points="-4,4 -4,-400 251.05,-400 251.05,4 -4,4"/>
<!-- 0 -->
<g id="node1" class="node">
<title>0</title>
<ellipse fill="none" stroke="black" cx="38" cy="-378" rx="27" ry="18"/>
<text text-anchor="middle" x="38" y="-374.3" font-family="Times,serif" font-size="14.00">0</text>
</g>
<!-- 1 -->
<g id="node2" class="node">
<title>1</title>
<ellipse fill="none" stroke="black" cx="114" cy="-306" rx="27" ry="18"/>
<text text-anchor="middle" x="114" y="-302.3" font-family="Times,serif" font-size="14.00">1</text>
</g>
<!-- 0&#45;&#45;1 -->
<g id="edge1" class="edge">
<title>0&#45;&#45;1</title>
<path fill="none" stroke="black" d="M53.38,-362.83C66.57,-350.69 85.46,-333.28 98.64,-321.14"/>
</g>
<!-- 2 -->
<g id="node3" class="node">
<title>2</title>
<ellipse fill="none" stroke="black" cx="207" cy="-234" rx="27" ry="18"/>
<text text-anchor="middle" x="207" y="-230.3" font-family="Times,serif" font-size="14.00">2</text>
</g>
<!-- 0&#45;&#45;2 -->
<g id="edge2" class="edge">
<title>0&#45;&#45;2</title>
<path fill="none" stroke="black" d="M62.54,-369.82C86.87,-361.76 124.16,-346.74 150,-324 173.42,-303.4 190.87,-270.91 199.95,-251.41"/>
</g>
<!-- 3 -->
<g id="node4" class="node">
<title>3</title>
<ellipse fill="none" stroke="black" cx="207" cy="-162" rx="27" ry="18"/>
<text text-anchor="middle" x="207" y="-158.3" font-family="Times,serif" font-size="14.00">3</text>
</g>
<!-- 0&#45;&#45;3 -->
<g id="edge3" class="edge">
<title>0&#45;&#45;3</title>
<path fill="none" stroke="black" d="M63.51,-371.75C111.74,-360.18 214.04,-327.28 243,-252 248.74,-237.07 247.7,-231.29 243,-216 238.62,-201.75 228.96,-187.9 220.75,-177.93"/>
</g>
<!-- 4 -->
<g id="node5" class="node">
<title>4</title>
<ellipse fill="none" stroke="black" cx="152" cy="-90" rx="27" ry="18"/>
<text text-anchor="middle" x="152" y="-86.3" font-family="Times,serif" font-size="14.00">4</text>
</g>
<!-- 0&#45;&#45;4 -->
<g id="edge4" class="edge">
<title>0&#45;&#45;4</title>
<path fill="none" stroke="black" d="M44.62,-360.39C64.77,-309.84 125.19,-158.27 145.36,-107.66"/>
</g>
<!-- 5 -->
<g id="node6" class="node">
<title>5</title>
<ellipse fill="none" stroke="black" cx="152" cy="-18" rx="27" ry="18"/>
<text text-anchor="middle" x="152" y="-14.3" font-family="Times,serif" font-size="14.00">5</text>
</g>
<!-- 0&#45;&#45;5 -->
<g id="edge5" class="edge">
<title>0&#45;&#45;5</title>
<path fill="none" stroke="black" d="M30.49,-360.34C19.42,-334.2 0,-281.7 0,-235 0,-235 0,-235 0,-161 0,-91.12 86.84,-45.75 129.24,-27.76"/>
</g>
<!-- 1&#45;&#45;2 -->
<g id="edge6" class="edge">
<title>1&#45;&#45;2</title>
<path fill="none" stroke="black" d="M131.49,-291.83C148.12,-279.32 172.98,-260.6 189.59,-248.11"/>
</g>
<!-- 1&#45;&#45;3 -->
<g id="edge7" class="edge">
<title>1&#45;&#45;3</title>
<path fill="none" stroke="black" d="M123.96,-289.16C135.24,-271.3 154.23,-241.42 171,-216 179.33,-203.37 188.97,-189.2 196.18,-178.69"/>
</g>
<!-- 1&#45;&#45;4 -->
<g id="edge8" class="edge">
<title>1&#45;&#45;4</title>
<path fill="none" stroke="black" d="M117.05,-287.85C124.18,-247.68 141.9,-147.89 148.99,-107.94"/>
</g>
<!-- 1&#45;&#45;5 -->
<g id="edge9" class="edge">
<title>1&#45;&#45;5</title>
<path fill="none" stroke="black" d="M110.88,-288.1C104.35,-248.99 91.77,-149.62 116,-72 120.44,-57.77 130.1,-43.92 138.29,-33.94"/>
</g>
<!-- 2&#45;&#45;3 -->
<g id="edge10" class="edge">
<title>2&#45;&#45;3</title>
<path fill="none" stroke="black" d="M207,-215.7C207,-204.85 207,-190.92 207,-180.1"/>
</g>
<!-- 2&#45;&#45;4 -->
<g id="edge11" class="edge">
<title>2&#45;&#45;4</title>
<path fill="none" stroke="black" d="M194.25,-217.7C186.44,-207.59 176.85,-193.71 171,-180 160.83,-156.17 155.89,-126.35 153.66,-107.99"/>
</g>
<!-- 2&#45;&#45;5 -->
<g id="edge12" class="edge">
<title>2&#45;&#45;5</title>
<path fill="none" stroke="black" d="M220.75,-218.07C228.96,-208.1 238.62,-194.25 243,-180 247.7,-164.71 246.68,-159.57 243,-144 234.78,-109.18 228.19,-100.83 207,-72 196.01,-57.04 180.59,-42.59 168.87,-32.57"/>
</g>
<!-- 3&#45;&#45;4 -->
<g id="edge13" class="edge">
<title>3&#45;&#45;4</title>
<path fill="none" stroke="black" d="M195.07,-145.81C185.84,-134.07 173.13,-117.89 163.91,-106.16"/>
</g>
<!-- 3&#45;&#45;5 -->
<g id="edge14" class="edge">
<title>3&#45;&#45;5</title>
<path fill="none" stroke="black" d="M205.34,-144.01C203.11,-125.65 198.17,-95.83 188,-72 182.15,-58.29 172.56,-44.41 164.75,-34.3"/>
</g>
<!-- 4&#45;&#45;5 -->
<g id="edge15" class="edge">
<title>4&#45;&#45;5</title>
<path fill="none" stroke="black" d="M152,-71.7C152,-60.85 152,-46.92 152,-36.1"/>
</g>
</g>
</svg>
